HIERARCHY
ROOT Hips
{
    OFFSET 0.000000 0.000000 0.000000
    CHANNELS 6 Xposition Yposition Zposition Zrotation Xrotation Yrotation
    JOINT Spine
    {
        OFFSET -0.000000 7.587367 0.000000
        CHANNELS 3 Zrotation Xrotation Yrotation
        JOINT Spine1
        {
            OFFSET -0.000000 21.665461 0.000000
            CHANNELS 3 Zrotation Xrotation Yrotation
            JOINT Neck
            {
                OFFSET -0.000000 21.576487 1.961499
                CHANNELS 3 Zrotation Xrotation Yrotation
                JOINT Head
                {
                    OFFSET -0.000000 12.954041 -1.850577
                    CHANNELS 3 Zrotation Xrotation Yrotation
                    End Site
                    {
                        OFFSET -0.000000 23.132217 0.000000
                    }
                }
            }
            JOINT LeftShoulder
            {
                OFFSET 3.736380 18.865139 -0.237605
                CHANNELS 3 Zrotation Xrotation Yrotation
                JOINT LeftArm
                {
                    OFFSET 13.340759 0.000000 0.000000
                    CHANNELS 3 Zrotation Xrotation Yrotation
                    JOINT LeftForeArm
                    {
                        OFFSET 34.199600 0.000000 0.000000
                        CHANNELS 3 Zrotation Xrotation Yrotation
                        JOINT LeftHand
                        {
                            OFFSET 18.347805 0.000000 0.000000
                            CHANNELS 3 Zrotation Xrotation Yrotation
                            End Site
                            {
                                OFFSET 13.879331 0.000000 0.000000
                            }
                        }
                    }
                }
            }
            JOINT RightShoulder
            {
                OFFSET -3.644239 18.865139 -0.237605
                CHANNELS 3 Zrotation Xrotation Yrotation
                JOINT RightArm
                {
                    OFFSET -13.340759 0.000000 0.000000
                    CHANNELS 3 Zrotation Xrotation Yrotation
                    JOINT RightForeArm
                    {
                        OFFSET -34.199600 0.000000 0.000000
                        CHANNELS 3 Zrotation Xrotation Yrotation
                        JOINT RightHand
                        {
                            OFFSET -18.347805 0.000000 0.000000
                            CHANNELS 3 Zrotation Xrotation Yrotation
                            End Site
                            {
                                OFFSET -13.879331 0.000000 0.000000
                            }
                        }
                    }
                }
            }
        }
    }
    JOINT LeftUpLeg
    {
        OFFSET 9.252887 0.000000 0.000000
        CHANNELS 3 Zrotation Xrotation Yrotation
        JOINT LeftLeg
        {
            OFFSET -0.000000 -37.275230 0.000000
            CHANNELS 3 Zrotation Xrotation Yrotation
            JOINT LeftFoot
            {
                OFFSET -0.000000 -38.159729 0.000000
                CHANNELS 3 Zrotation Xrotation Yrotation
                JOINT LeftToeBase
                {
                    OFFSET -0.000000 -6.014376 13.879331
                    CHANNELS 3 Zrotation Xrotation Yrotation
                    End Site
                    {
                        OFFSET -0.000000 0.000000 3.701154
                    }
                }
            }
        }
    }
    JOINT RightUpLeg
    {
        OFFSET -9.252887 0.000000 0.000000
        CHANNELS 3 Zrotation Xrotation Yrotation
        JOINT RightLeg
        {
            OFFSET -0.000000 -37.275230 0.000000
            CHANNELS 3 Zrotation Xrotation Yrotation
            JOINT RightFoot
            {
                OFFSET -0.000000 -38.159729 0.000000
                CHANNELS 3 Zrotation Xrotation Yrotation
                JOINT RightToeBase
                {
                    OFFSET -0.000000 -6.014376 13.879331
                    CHANNELS 3 Zrotation Xrotation Yrotation
                    End Site
                    {
                        OFFSET -0.000000 0.000000 3.701154
                    }
                }
            }
        }
    }
}
MOTION
Frames:    4
Frame Time:    0.010000
3.743416    75.220619    -16.559309    5.096062    -4.145942    -46.421040    -6.116752    -3.054812    1.100596    -4.126338    14.038022    1.772090    13.453119    4.954404    15.363205    -19.473652    8.776374    13.354696    11.986088    12.622106    1.612867    0.000000    0.000000    0.000000    7.264061    -17.409046    -134.264359    74.891777    6.644492    9.063469    -2.858854    2.921569    -7.126748    38.929588    14.632616    55.597607    -12.967486    -30.449528    134.670944    7.590194    -1.775321    -26.526035    18.252581    -16.483805    14.465019    -13.938789    29.387253    12.973325    -14.229758    -10.151945    15.365298    0.000000    0.000000    0.000000    -33.285484    7.279075    -7.089762    5.711918    2.148679    -6.459486    25.779776    -8.353954    -29.258911    0.000000    0.000000    0.000000    
3.721853    75.226471    -16.568058    5.111895    -4.089644    -46.364342    -6.152531    -3.129045    1.071370    -4.092073    14.111697    1.746274    13.476479    4.951524    15.385075    -19.527121    8.720045    13.361624    12.003300    12.575853    1.633577    0.000000    0.000000    0.000000    7.232726    -17.339699    -134.294693    74.889671    6.639596    9.044992    -2.813610    2.933232    -7.145169    38.899040    14.666104    55.649326    -13.027426    -30.549623    134.609573    7.824779    -1.856328    -26.463207    18.296015    -16.546967    14.431705    -13.955485    29.385828    12.954914    -14.236653    -10.106371    15.415308    0.000000    0.000000    0.000000    -33.218761    7.289488    -7.159673    5.691320    2.125154    -6.497530    25.839315    -8.343518    -29.221909    0.000000    0.000000    0.000000    
3.714684    75.226059    -16.570408    5.115056    -4.084443    -46.371204    -6.170846    -3.102447    1.065613    -4.095336    14.080924    1.738929    13.486128    5.015429    15.413221    -19.599596    8.632865    13.378201    11.981558    12.598116    1.665441    0.000000    0.000000    0.000000    7.221956    -17.299747    -134.310486    74.901321    6.620233    8.989264    -2.814673    2.951718    -7.103792    38.961029    14.680240    55.651035    -12.981449    -30.461412    134.642853    7.654552    -1.811784    -26.456467    18.302855    -16.537285    14.408090    -13.972589    29.363611    12.964881    -14.244127    -10.124778    15.420509    0.000000    0.000000    0.000000    -33.234535    7.256739    -7.129695    5.725174    2.184904    -6.523966    25.787144    -8.362060    -29.202864    0.000000    0.000000    0.000000    
3.694778    75.228416    -16.581413    5.123232    -4.039011    -46.322113    -6.209012    -3.170752    1.052187    -4.048663    14.200906    1.728767    13.492296    4.979856    15.430938    -19.663139    8.554543    13.373897    11.976699    12.509672    1.682766    0.000000    0.000000    0.000000    7.223149    -17.252983    -134.339203    74.918358    6.684906    8.988014    -2.822444    2.910019    -7.146454    38.965744    14.742150    55.688129    -13.020241    -30.454576    134.607925    7.627236    -1.719092    -26.510122    18.338776    -16.584528    14.359152    -13.990410    29.347868    12.997823    -14.290190    -10.121279    15.400949    0.000000    0.000000    0.000000    -33.188858    7.262585    -7.164941    5.734940    2.190930    -6.510680    25.787382    -8.394888    -29.215723    0.000000    0.000000    0.000000    
